<?xml version="1.0" standalone="no"?>
<!DOCTYPE svg PUBLIC "-//W3C//DTD SVG 20010904//EN"
 "http://www.w3.org/TR/2001/REC-SVG-20010904/DTD/svg10.dtd">
<svg version="1.0" xmlns="http://www.w3.org/2000/svg"
 width="512.000000pt" height="512.000000pt" viewBox="0 0 512.000000 512.000000"
 preserveAspectRatio="xMidYMid meet">
<metadata>
Created by potrace 1.11, written by Peter Selinger 2001-2013
</metadata>
<g transform="translate(0.000000,512.000000) scale(0.100000,-0.100000)"
fill="#000000" stroke="none">
<path d="M2492 4548 l-12 -35 -108 -12 c-580 -63 -1111 -381 -1427 -856 -83
-124 -169 -292 -210 -407 l-28 -78 -80 0 -81 0 64 -46 c36 -26 66 -47 67 -48
1 -1 -5 -28 -13 -61 -60 -259 -59 -612 5 -879 89 -370 326 -762 604 -996 42
-35 77 -69 77 -76 0 -6 -13 -50 -29 -98 -19 -58 -25 -86 -17 -83 8 3 45 29 84
57 l71 52 86 -52 c244 -147 525 -245 805 -280 109 -13 371 -13 480 0 226 28
450 97 658 200 76 39 142 70 146 70 4 0 23 -12 42 -26 19 -15 37 -24 40 -22 3
3 -3 24 -12 47 -9 23 -15 43 -13 44 404 268 710 702 820 1163 66 276 66 622 0
898 -71 295 -231 598 -439 832 -357 401 -911 654 -1432 654 l-105 0 -15 36
-15 37 -13 -35z"/>
</g>
</svg>
